<svg xmlns="http://www.w3.org/2000/svg" width="900" height="360"><rect width="100%" height="100%" fill="white"/><text x="20" y="28" font-size="18">Generation-corpus amino-acid composition</text><line x1="45" y1="290" x2="850" y2="290" stroke="black"/><rect x="55" y="224" width="38" height="66" fill="#2d6a8e"/><text x="55" y="310" font-size="10" transform="rotate(45 55 310)">A</text><rect x="95" y="60" width="38" height="230" fill="#2d6a8e"/><text x="95" y="310" font-size="10" transform="rotate(45 95 310)">C</text><rect x="135" y="245" width="38" height="45" fill="#2d6a8e"/><text x="135" y="310" font-size="10" transform="rotate(45 135 310)">D</text><rect x="175" y="239" width="38" height="51" fill="#2d6a8e"/><text x="175" y="310" font-size="10" transform="rotate(45 175 310)">E</text><rect x="215" y="231" width="38" height="59" fill="#2d6a8e"/><text x="215" y="310" font-size="10" transform="rotate(45 215 310)">F</text><rect x="255" y="151" width="38" height="139" fill="#2d6a8e"/><text x="255" y="310" font-size="10" transform="rotate(45 255 310)">G</text><rect x="295" y="246" width="38" height="44" fill="#2d6a8e"/><text x="295" y="310" font-size="10" transform="rotate(45 295 310)">H</text><rect x="335" y="230" width="38" height="60" fill="#2d6a8e"/><text x="335" y="310" font-size="10" transform="rotate(45 335 310)">I</text><rect x="375" y="176" width="38" height="114" fill="#2d6a8e"/><text x="375" y="310" font-size="10" transform="rotate(45 375 310)">K</text><rect x="415" y="214" width="38" height="76" fill="#2d6a8e"/><text x="415" y="310" font-size="10" transform="rotate(45 415 310)">L</text><rect x="455" y="274" width="38" height="16" fill="#2d6a8e"/><text x="455" y="310" font-size="10" transform="rotate(45 455 310)">M</text><rect x="495" y="206" width="38" height="84" fill="#2d6a8e"/><text x="495" y="310" font-size="10" transform="rotate(45 495 310)">N</text><rect x="535" y="230" width="38" height="60" fill="#2d6a8e"/><text x="535" y="310" font-size="10" transform="rotate(45 535 310)">P</text><rect x="575" y="253" width="38" height="37" fill="#2d6a8e"/><text x="575" y="310" font-size="10" transform="rotate(45 575 310)">Q</text><rect x="615" y="141" width="38" height="149" fill="#2d6a8e"/><text x="615" y="310" font-size="10" transform="rotate(45 615 310)">R</text><rect x="655" y="209" width="38" height="81" fill="#2d6a8e"/><text x="655" y="310" font-size="10" transform="rotate(45 655 310)">S</text><rect x="695" y="225" width="38" height="65" fill="#2d6a8e"/><text x="695" y="310" font-size="10" transform="rotate(45 695 310)">T</text><rect x="735" y="216" width="38" height="74" fill="#2d6a8e"/><text x="735" y="310" font-size="10" transform="rotate(45 735 310)">V</text><rect x="775" y="259" width="38" height="31" fill="#2d6a8e"/><text x="775" y="310" font-size="10" transform="rotate(45 775 310)">W</text><rect x="815" y="230" width="38" height="60" fill="#2d6a8e"/><text x="815" y="310" font-size="10" transform="rotate(45 815 310)">Y</text></svg>