<svg xmlns="http://www.w3.org/2000/svg" width="900" height="360"><rect width="100%" height="100%" fill="white"/><text x="20" y="28" font-size="18">80% identity cluster-size distribution</text><line x1="45" y1="290" x2="850" y2="290" stroke="black"/><rect x="55" y="60" width="23" height="230" fill="#2d6a8e"/><text x="55" y="310" font-size="10" transform="rotate(45 55 310)">1</text><rect x="80" y="283" width="23" height="7" fill="#2d6a8e"/><text x="80" y="310" font-size="10" transform="rotate(45 80 310)">10</text><rect x="105" y="270" width="23" height="20" fill="#2d6a8e"/><text x="105" y="310" font-size="10" transform="rotate(45 105 310)">102</text><rect x="130" y="282" width="23" height="8" fill="#2d6a8e"/><text x="130" y="310" font-size="10" transform="rotate(45 130 310)">11</text><rect x="155" y="283" width="23" height="7" fill="#2d6a8e"/><text x="155" y="310" font-size="10" transform="rotate(45 155 310)">12</text><rect x="180" y="272" width="23" height="18" fill="#2d6a8e"/><text x="180" y="310" font-size="10" transform="rotate(45 180 310)">13</text><rect x="205" y="285" width="23" height="5" fill="#2d6a8e"/><text x="205" y="310" font-size="10" transform="rotate(45 205 310)">14</text><rect x="230" y="282" width="23" height="8" fill="#2d6a8e"/><text x="230" y="310" font-size="10" transform="rotate(45 230 310)">15</text><rect x="255" y="284" width="23" height="6" fill="#2d6a8e"/><text x="255" y="310" font-size="10" transform="rotate(45 255 310)">16</text><rect x="280" y="280" width="23" height="10" fill="#2d6a8e"/><text x="280" y="310" font-size="10" transform="rotate(45 280 310)">17</text><rect x="305" y="283" width="23" height="7" fill="#2d6a8e"/><text x="305" y="310" font-size="10" transform="rotate(45 305 310)">18</text><rect x="330" y="283" width="23" height="7" fill="#2d6a8e"/><text x="330" y="310" font-size="10" transform="rotate(45 330 310)">19</text><rect x="355" y="214" width="23" height="76" fill="#2d6a8e"/><text x="355" y="310" font-size="10" transform="rotate(45 355 310)">2</text><rect x="380" y="286" width="23" height="4" fill="#2d6a8e"/><text x="380" y="310" font-size="10" transform="rotate(45 380 310)">21</text><rect x="405" y="282" width="23" height="8" fill="#2d6a8e"/><text x="405" y="310" font-size="10" transform="rotate(45 405 310)">22</text><rect x="430" y="244" width="23" height="46" fill="#2d6a8e"/><text x="430" y="310" font-size="10" transform="rotate(45 430 310)">235</text><rect x="455" y="275" width="23" height="15" fill="#2d6a8e"/><text x="455" y="310" font-size="10" transform="rotate(45 455 310)">26</text><rect x="480" y="255" width="23" height="35" fill="#2d6a8e"/><text x="480" y="310" font-size="10" transform="rotate(45 480 310)">3</text><rect x="505" y="283" width="23" height="7" fill="#2d6a8e"/><text x="505" y="310" font-size="10" transform="rotate(45 505 310)">36</text><rect x="530" y="271" width="23" height="19" fill="#2d6a8e"/><text x="530" y="310" font-size="10" transform="rotate(45 530 310)">4</text><rect x="555" y="283" width="23" height="7" fill="#2d6a8e"/><text x="555" y="310" font-size="10" transform="rotate(45 555 310)">40</text><rect x="580" y="282" width="23" height="8" fill="#2d6a8e"/><text x="580" y="310" font-size="10" transform="rotate(45 580 310)">42</text><rect x="605" y="282" width="23" height="8" fill="#2d6a8e"/><text x="605" y="310" font-size="10" transform="rotate(45 605 310)">44</text><rect x="630" y="281" width="23" height="9" fill="#2d6a8e"/><text x="630" y="310" font-size="10" transform="rotate(45 630 310)">48</text><rect x="655" y="273" width="23" height="17" fill="#2d6a8e"/><text x="655" y="310" font-size="10" transform="rotate(45 655 310)">5</text><rect x="680" y="183" width="23" height="107" fill="#2d6a8e"/><text x="680" y="310" font-size="10" transform="rotate(45 680 310)">543</text><rect x="705" y="268" width="23" height="22" fill="#2d6a8e"/><text x="705" y="310" font-size="10" transform="rotate(45 705 310)">6</text><rect x="730" y="278" width="23" height="12" fill="#2d6a8e"/><text x="730" y="310" font-size="10" transform="rotate(45 730 310)">64</text><rect x="755" y="277" width="23" height="13" fill="#2d6a8e"/><text x="755" y="310" font-size="10" transform="rotate(45 755 310)">67</text><rect x="780" y="272" width="23" height="18" fill="#2d6a8e"/><text x="780" y="310" font-size="10" transform="rotate(45 780 310)">7</text><rect x="805" y="275" width="23" height="15" fill="#2d6a8e"/><text x="805" y="310" font-size="10" transform="rotate(45 805 310)">8</text><rect x="830" y="282" width="23" height="8" fill="#2d6a8e"/><text x="830" y="310" font-size="10" transform="rotate(45 830 310)">9</text></svg>