<svg xmlns="http://www.w3.org/2000/svg" width="900" height="360"><rect width="100%" height="100%" fill="white"/><text x="20" y="28" font-size="18">Standardized source record counts</text><line x1="45" y1="290" x2="850" y2="290" stroke="black"/><rect x="55" y="264" width="76" height="26" fill="#2d6a8e"/><text x="55" y="310" font-size="10" transform="rotate(45 55 310)">AMPlify</text><rect x="135" y="126" width="76" height="164" fill="#2d6a8e"/><text x="135" y="310" font-size="10" transform="rotate(45 135 310)">DBAASP_activity</text><rect x="215" y="275" width="76" height="15" fill="#2d6a8e"/><text x="215" y="310" font-size="10" transform="rotate(45 215 310)">DBAASP_fasta</text><rect x="295" y="274" width="76" height="16" fill="#2d6a8e"/><text x="295" y="310" font-size="10" transform="rotate(45 295 310)">DBAASP_peptides</text><rect x="375" y="278" width="76" height="12" fill="#2d6a8e"/><text x="375" y="310" font-size="10" transform="rotate(45 375 310)">DBAASP_toxicity</text><rect x="455" y="60" width="76" height="230" fill="#2d6a8e"/><text x="455" y="310" font-size="10" transform="rotate(45 455 310)">DRAMP_Antibacterial_amps</text><rect x="535" y="60" width="76" height="230" fill="#2d6a8e"/><text x="535" y="310" font-size="10" transform="rotate(45 535 310)">DRAMP_antibacterial_fasta</text><rect x="615" y="197" width="76" height="93" fill="#2d6a8e"/><text x="615" y="310" font-size="10" transform="rotate(45 615 310)">DRAMP_general_amps</text><rect x="695" y="197" width="76" height="93" fill="#2d6a8e"/><text x="695" y="310" font-size="10" transform="rotate(45 695 310)">DRAMP_general_fasta</text><rect x="775" y="191" width="76" height="99" fill="#2d6a8e"/><text x="775" y="310" font-size="10" transform="rotate(45 775 310)">dbAMP</text></svg>